<mxfile host="app.diagrams.net" agent="Mozilla/5.0 (Windows NT 10.0; Win64; x64) AppleWebKit/537.36 (KHTML, like Gecko) Chrome/138.0.0.0 Safari/537.36" version="28.0.7">
  <diagram name="페이지-1" id="iaPglFLunbU9z0b2Pu0Y">
    <mxGraphModel dx="374" dy="909" grid="0" gridSize="10" guides="1" tooltips="1" connect="1" arrows="1" fold="1" page="0" pageScale="1" pageWidth="827" pageHeight="709" math="0" shadow="0">
      <root>
        <mxCell id="0" />
        <mxCell id="1" parent="0" />
        <mxCell id="FK6qkUPOMpVCX3cmYUep-14" value="Guest" style="shape=umlActor;verticalLabelPosition=bottom;verticalAlign=top;html=1;outlineConnect=0;" vertex="1" parent="1">
          <mxGeometry x="30" y="-213" width="30" height="60" as="geometry" />
        </mxCell>
        <mxCell id="FK6qkUPOMpVCX3cmYUep-15" value="로그인" style="ellipse;whiteSpace=wrap;html=1;" vertex="1" parent="1">
          <mxGeometry x="127" y="-223" width="120" height="80" as="geometry" />
        </mxCell>
        <mxCell id="FK6qkUPOMpVCX3cmYUep-16" value="회원가입" style="ellipse;whiteSpace=wrap;html=1;" vertex="1" parent="1">
          <mxGeometry x="127" y="-322" width="120" height="80" as="geometry" />
        </mxCell>
        <mxCell id="FK6qkUPOMpVCX3cmYUep-17" value="로그아웃" style="ellipse;whiteSpace=wrap;html=1;" vertex="1" parent="1">
          <mxGeometry x="127" y="-124" width="120" height="80" as="geometry" />
        </mxCell>
        <mxCell id="FK6qkUPOMpVCX3cmYUep-18" value="Login" style="shape=umlActor;verticalLabelPosition=bottom;verticalAlign=top;html=1;outlineConnect=0;" vertex="1" parent="1">
          <mxGeometry x="314" y="-213" width="30" height="60" as="geometry" />
        </mxCell>
        <mxCell id="FK6qkUPOMpVCX3cmYUep-23" value="" style="endArrow=none;html=1;rounded=0;fontSize=12;startSize=8;endSize=8;curved=1;" edge="1" parent="1">
          <mxGeometry width="50" height="50" relative="1" as="geometry">
            <mxPoint x="96" y="-183" as="sourcePoint" />
            <mxPoint x="96" y="-284" as="targetPoint" />
          </mxGeometry>
        </mxCell>
        <mxCell id="FK6qkUPOMpVCX3cmYUep-24" value="" style="endArrow=classic;html=1;rounded=0;fontSize=12;startSize=8;endSize=8;curved=1;entryX=0;entryY=0.5;entryDx=0;entryDy=0;" edge="1" parent="1" target="FK6qkUPOMpVCX3cmYUep-15">
          <mxGeometry width="50" height="50" relative="1" as="geometry">
            <mxPoint x="62" y="-184" as="sourcePoint" />
            <mxPoint x="265.42505297076826" y="-182.49802275056902" as="targetPoint" />
          </mxGeometry>
        </mxCell>
        <mxCell id="FK6qkUPOMpVCX3cmYUep-25" value="" style="endArrow=classic;html=1;rounded=0;fontSize=12;startSize=8;endSize=8;curved=1;entryX=0;entryY=0.5;entryDx=0;entryDy=0;" edge="1" parent="1">
          <mxGeometry width="50" height="50" relative="1" as="geometry">
            <mxPoint x="96" y="-284" as="sourcePoint" />
            <mxPoint x="127" y="-284" as="targetPoint" />
          </mxGeometry>
        </mxCell>
        <mxCell id="FK6qkUPOMpVCX3cmYUep-26" value="" style="endArrow=none;html=1;rounded=0;fontSize=12;startSize=8;endSize=8;curved=1;" edge="1" parent="1">
          <mxGeometry width="50" height="50" relative="1" as="geometry">
            <mxPoint x="279" y="-183" as="sourcePoint" />
            <mxPoint x="314" y="-182.5" as="targetPoint" />
          </mxGeometry>
        </mxCell>
        <mxCell id="FK6qkUPOMpVCX3cmYUep-27" value="" style="endArrow=none;html=1;rounded=0;fontSize=12;startSize=8;endSize=8;curved=1;" edge="1" parent="1">
          <mxGeometry width="50" height="50" relative="1" as="geometry">
            <mxPoint x="279" y="-83" as="sourcePoint" />
            <mxPoint x="279" y="-183" as="targetPoint" />
          </mxGeometry>
        </mxCell>
        <mxCell id="FK6qkUPOMpVCX3cmYUep-28" value="" style="endArrow=classic;html=1;rounded=0;fontSize=12;startSize=8;endSize=8;curved=1;entryX=1;entryY=0.5;entryDx=0;entryDy=0;" edge="1" parent="1" target="FK6qkUPOMpVCX3cmYUep-17">
          <mxGeometry width="50" height="50" relative="1" as="geometry">
            <mxPoint x="279" y="-83" as="sourcePoint" />
            <mxPoint x="248" y="-82" as="targetPoint" />
          </mxGeometry>
        </mxCell>
      </root>
    </mxGraphModel>
  </diagram>
</mxfile>
